<svg width="926" height="573" fill="none" xmlns="http://www.w3.org/2000/svg"><path d="M273.488 560.124L1150 324.772V0L504.79 165.247V90.85l-47.979 12.877V70.105L25 191v316.903l45.115-14.307V573l203.373-55.798v42.922z" fill="#952426"/><g filter="url(#filter0_d)"><path d="M1358 100.061V94L804 222.388V229l554-128.939z" fill="#fff"/></g><g filter="url(#filter1_d)"><path d="M604 394.016V388L50 515.437V522l554-127.984z" fill="#010101"/></g><path d="M542.25 209.322l-22.337 4.818 2.09 9.691 8.042-1.734c5.888-1.27 10.859-.844 14.913 1.279 4.072 2.094 6.63 5.559 7.673 10.393 1.047 4.857.171 9.134-2.628 12.83-2.781 3.669-7.007 6.139-12.679 7.411l-18.833 4.062-10.793-50.037 32.751-7.064 1.801 8.351zm-18.453 22.826l3.321 15.396 8.213-1.772c2.635-.568 4.575-1.742 5.822-3.521 1.27-1.785 1.642-3.891 1.119-6.32-.49-2.268-1.631-3.892-3.425-4.872-1.776-1.007-3.974-1.252-6.596-.735l-8.454 1.824zm74.873-16.366c1.062 4.926 1.123 9.432.183 13.519-.941 4.088-2.82 7.49-5.639 10.208-2.795 2.713-6.29 4.521-10.482 5.426-4.147.894-8.062.696-11.745-.596-3.683-1.291-6.816-3.589-9.399-6.892-2.588-3.326-4.412-7.392-5.472-12.198l-.534-2.475c-1.063-4.925-1.115-9.446-.156-13.561.977-4.143 2.865-7.559 5.666-10.249 2.818-2.718 6.312-4.526 10.482-5.426 4.17-.899 8.087-.689 11.752.63 3.684 1.292 6.813 3.626 9.387 7.003 2.593 3.349 4.418 7.475 5.475 12.377l.482 2.234zm-10.936-.015c-1.132-5.246-2.931-9.03-5.398-11.351-2.467-2.321-5.441-3.106-8.924-2.355-3.459.746-5.837 2.674-7.132 5.782-1.301 3.086-1.402 7.232-.303 12.437l.527 2.44c1.102 5.109 2.896 8.87 5.382 11.283 2.487 2.413 5.494 3.239 9.022 2.478 3.46-.746 5.826-2.671 7.099-5.775 1.267-3.127 1.352-7.293.253-12.499l-.526-2.44zm64.303 13.5l-10.31 2.223-4.625-21.444-20.104 4.336 4.625 21.445-10.309 2.224-10.793-50.037 10.31-2.224 4.373 20.276 20.104-4.336-4.373-20.276 10.309-2.224 10.793 50.037zm22.109-32.39l4.007-25.608 11.135-2.402-8.59 45.047-.823 3.018c-1.616 5.072-5.092 8.184-10.431 9.335l-3.638.641-1.889-8.26c.569-.027 1.473-.174 2.71-.441 1.443-.311 2.546-.812 3.308-1.504.785-.697 1.329-1.786 1.633-3.266l.568-3.539-25.256-31.884 11.101-2.394 16.165 21.257zm66.259-4.114c.772 5.468-.307 10.137-3.237 14.005-2.907 3.864-7.293 6.429-13.158 7.694-6.415 1.383-11.931.319-16.549-3.192-4.6-3.54-7.712-9.078-9.338-16.616l-.66-3.058c-1.038-4.811-1.104-9.233-.199-13.264.904-4.032 2.716-7.359 5.435-9.984 2.736-2.652 6.19-4.428 10.359-5.327 5.774-1.246 10.758-.702 14.954 1.63 4.195 2.331 7.17 6.233 8.926 11.705l-10.31 2.224c-.948-3.176-2.357-5.318-4.227-6.425-1.851-1.136-4.357-1.362-7.519-.68-3.437.741-5.747 2.534-6.932 5.379-1.167 2.817-1.214 6.82-.143 12.007l.815 3.78c1.166 5.407 2.832 9.184 4.997 11.33 2.189 2.142 5.047 2.832 8.575 2.071 3.185-.687 5.4-1.92 6.647-3.699 1.264-1.808 1.683-4.26 1.254-7.356l10.31-2.224zm51.089 6.423l-10.31 2.224-4.625-21.444-20.104 4.336 4.625 21.445-10.31 2.223-10.792-50.036 10.309-2.224 4.374 20.276 20.104-4.337-4.374-20.276 10.31-2.223 10.793 50.036zm35.682-18.485l-18.077 3.899-1.213 11.051-10.962 2.364 7.833-54.054 9.554-2.061 29.522 45.997-10.962 2.365-5.695-9.561zm-17.094-5.053l12.509-2.698-10.329-17.373-2.18 20.071zm61.553 6.252l-3.891-18.042-8.386 1.809-5.146 19.991-11.135 2.402 6.085-23.646c-5.768-1.729-9.297-5.584-10.586-11.563-1.058-4.903-.272-9.041 2.357-12.413 2.63-3.373 6.815-5.702 12.555-6.988l17.699-3.818 10.792 50.037-10.344 2.231zm-22.587-30.517c.603 2.795 1.717 4.677 3.34 5.645 1.647.964 3.833 1.152 6.559.564l7.114-1.535-3.417-15.843-7.114 1.535c-5.453 1.176-7.613 4.387-6.482 9.634zM546.532 308.372l-5.945 1.283 4.41 20.448-10.31 2.223-10.792-50.036 10.309-2.224 4.322 20.035 4.708-1.015 7.913-22.675 12.578-2.713-10.323 27.007 22.731 22.682-12.303 2.653-17.298-17.668zm59.612-2.248l-18.076 3.899-1.213 11.051-10.963 2.365 7.834-54.055 9.553-2.06 29.523 45.996-10.963 2.365-5.695-9.561zm-17.094-5.052l12.509-2.699-10.329-17.372-2.18 20.071zm44.932-8.613l3.803 17.63-10.31 2.223-10.792-50.036 19.519-4.211c3.758-.81 7.205-.834 10.343-.073 3.16.757 5.782 2.242 7.865 4.454 2.079 2.189 3.467 4.899 4.163 8.129 1.058 4.903.209 9.138-2.546 12.705-2.737 3.54-7.072 5.949-13.006 7.229l-9.039 1.95zm-1.801-8.351l9.21-1.987c2.727-.588 4.662-1.676 5.805-3.266 1.167-1.594 1.493-3.583.979-5.965-.528-2.452-1.678-4.278-3.447-5.479-1.77-1.2-3.931-1.549-6.484-1.047l-9.45 2.039 3.387 15.705zm69.4-31.405l-15.328 3.306 8.992 41.686-10.31 2.224-8.991-41.686-15.121 3.261-1.802-8.351 40.758-8.791 1.802 8.351zm36.803 24.897l-18.076 3.899-1.213 11.051-10.963 2.365 7.834-54.054 9.553-2.061 29.523 45.997-10.963 2.364-5.695-9.561zm-17.094-5.052l12.509-2.698-10.329-17.373-2.18 20.071z" fill="#fff"/><defs><filter id="filter0_d" x="754" y="44" width="654" height="235" filterUnits="userSpaceOnUse" color-interpolation-filters="sRGB"><feFlood flood-opacity="0" result="BackgroundImageFix"/><feColorMatrix in="SourceAlpha" values="0 0 0 0 0 0 0 0 0 0 0 0 0 0 0 0 0 0 127 0"/><feOffset/><feGaussianBlur stdDeviation="25"/><feColorMatrix values="0 0 0 0 0.772549 0 0 0 0 0.0784314 0 0 0 0 0.0745098 0 0 0 0.3 0"/><feBlend in2="BackgroundImageFix" result="effect1_dropShadow"/><feBlend in="SourceGraphic" in2="effect1_dropShadow" result="shape"/></filter><filter id="filter1_d" x="0" y="338" width="654" height="234" filterUnits="userSpaceOnUse" color-interpolation-filters="sRGB"><feFlood flood-opacity="0" result="BackgroundImageFix"/><feColorMatrix in="SourceAlpha" values="0 0 0 0 0 0 0 0 0 0 0 0 0 0 0 0 0 0 127 0"/><feOffset/><feGaussianBlur stdDeviation="25"/><feColorMatrix values="0 0 0 0 0.772549 0 0 0 0 0.0784314 0 0 0 0 0.0745098 0 0 0 0.3 0"/><feBlend in2="BackgroundImageFix" result="effect1_dropShadow"/><feBlend in="SourceGraphic" in2="effect1_dropShadow" result="shape"/></filter></defs></svg>