<svg width="1920" height="621" fill="none" xmlns="http://www.w3.org/2000/svg"><g filter="url(#filter0_d)"><path d="M0-3023h1920V20.075L960 243 0 20.075V-3023z" fill="#222"/></g><g filter="url(#filter1_d)" fill="#952426"><path d="M932 285v-28.5L421 138v29.5L932 285zM203 529v-28.5L-308 382v29.5L203 529zm1447-410.478V113l-504 116.976V236l504-117.478z"/><path d="M-188 416.298V411l484 112.22V529l-484-112.702zM1718 163.5v-79L1954.5 28v80.5l-236.5 55zM1590 109V79l-509 117.5v30L1590 109zm49 29l-273 61v36.5l273-64.5v-33zm-1283.5-8L16 57v63l339.5 71.5V130z"/></g><defs><filter id="filter0_d" x="-100" y="-3093" width="2120" height="3466" filterUnits="userSpaceOnUse" color-interpolation-filters="sRGB"><feFlood flood-opacity="0" result="BackgroundImageFix"/><feColorMatrix in="SourceAlpha" values="0 0 0 0 0 0 0 0 0 0 0 0 0 0 0 0 0 0 127 0"/><feOffset dy="30"/><feGaussianBlur stdDeviation="50"/><feColorMatrix values="0 0 0 0 0 0 0 0 0 0 0 0 0 0 0 0 0 0 0.4 0"/><feBlend in2="BackgroundImageFix" result="effect1_dropShadow"/><feBlend in="SourceGraphic" in2="effect1_dropShadow" result="shape"/></filter><filter id="filter1_d" x="-358" y="-22" width="2362.5" height="601" filterUnits="userSpaceOnUse" color-interpolation-filters="sRGB"><feFlood flood-opacity="0" result="BackgroundImageFix"/><feColorMatrix in="SourceAlpha" values="0 0 0 0 0 0 0 0 0 0 0 0 0 0 0 0 0 0 127 0"/><feOffset/><feGaussianBlur stdDeviation="25"/><feColorMatrix values="0 0 0 0 0.772549 0 0 0 0 0.0784314 0 0 0 0 0.0745098 0 0 0 0.3 0"/><feBlend in2="BackgroundImageFix" result="effect1_dropShadow"/><feBlend in="SourceGraphic" in2="effect1_dropShadow" result="shape"/></filter></defs></svg>